# xmcd CD database file
#
# Track frame offsets:
#	187
#	18662
#	37062
#
# Disc length: 739 seconds
#
# Revision: 0
# Processed by: cddbd v1.5.1PL0 Copyright (c) Steve Scherf et al.
# Submitted via: CDex 1.51
#
DISCID=2102e103
DTITLE=森口博子 - ホイッスル
DYEAR=1900
DGENRE=JPop
TTITLE0=ホイッスル
TTITLE1=空からの手紙
TTITLE2=ホイッスル（カラオケ）
EXTD=
EXTT0=
EXTT1=
EXTT2=
PLAYORDER=
